<svg width="24" height="24" viewBox="0 0 24 24" fill="none" xmlns="http://www.w3.org/2000/svg">
<path d="M21.6258 7.02583C21.6258 6.43382 21.6252 6.03359 21.6001 5.72475C21.5757 5.42507 21.5314 5.27498 21.4792 5.17194C21.3501 4.91726 21.142 4.70617 20.8817 4.57286C20.7724 4.51694 20.616 4.47167 20.3132 4.4468C20.0028 4.42132 19.6015 4.4202 19.0129 4.4202H18.6C17.4342 4.4202 16.5999 4.42088 15.9457 4.47456C15.2991 4.52764 14.8879 4.62965 14.5581 4.79838C13.9097 5.13036 13.3855 5.65836 13.0586 6.30301C12.8939 6.62773 12.7933 7.03364 12.7408 7.67926C12.6876 8.33367 12.6871 9.16915 12.6871 10.3416V19.5798H19.0129C19.6015 19.5798 20.0028 19.5787 20.3132 19.5532C20.616 19.5283 20.7724 19.4831 20.8817 19.4271C21.142 19.2938 21.3501 19.0827 21.4792 18.8281C21.5314 18.725 21.5757 18.5749 21.6001 18.2752C21.6252 17.9664 21.6258 17.5662 21.6258 16.9742V7.02583ZM2.37416 16.9742C2.37416 17.5662 2.37482 17.9664 2.3999 18.2752C2.42427 18.5749 2.46858 18.725 2.52075 18.8281C2.6499 19.0827 2.85803 19.2938 3.11831 19.4271C3.22755 19.4831 3.38398 19.5283 3.68678 19.5532C3.99715 19.5787 4.39854 19.5798 4.98708 19.5798H11.3129V10.3416L11.3051 8.81611C11.2983 8.37894 11.2858 8.00645 11.2592 7.67926C11.2067 7.03364 11.1061 6.62773 10.9414 6.30301C10.6145 5.65836 10.0903 5.13036 9.44191 4.79838C9.11213 4.62965 8.70086 4.52764 8.05432 4.47456C7.4001 4.42088 6.56582 4.4202 5.4 4.4202H4.98708C4.39854 4.4202 3.99715 4.42132 3.68678 4.4468C3.38398 4.47167 3.22755 4.51694 3.11831 4.57286C2.85803 4.70617 2.6499 4.91727 2.52075 5.17194C2.46858 5.27498 2.42427 5.42507 2.3999 5.72475C2.37482 6.03359 2.37416 6.43382 2.37416 7.02583V16.9742ZM23 16.9742C23 17.5422 23.0008 18.0122 22.9698 18.3944C22.938 18.7855 22.8693 19.1482 22.6967 19.4884C22.4304 20.0135 22.0073 20.4364 21.4916 20.7005C21.1597 20.8703 20.8067 20.9383 20.4218 20.9699C20.0443 21.0009 19.5793 21 19.0129 21H4.98708C4.42067 21 3.95566 21.0009 3.57823 20.9699C3.19335 20.9383 2.84034 20.8703 2.50845 20.7005C1.99273 20.4364 1.56959 20.0135 1.30326 19.4884C1.13071 19.1482 1.06202 18.7855 1.03022 18.3944C0.99916 18.0122 1 17.5422 1 16.9742V7.02583C1 6.45777 0.99916 5.98778 1.03022 5.60563C1.06202 5.21448 1.13071 4.85184 1.30326 4.51157C1.56959 3.98654 1.99273 3.56357 2.50845 3.29954C2.84034 3.12966 3.19335 3.06167 3.57823 3.03007C3.95566 2.9991 4.42067 3 4.98708 3H5.4C6.544 3 7.44262 2.99861 8.16399 3.05783C8.89272 3.11768 9.50044 3.24222 10.0529 3.52506C10.8599 3.93824 11.5343 4.57328 12 5.35582C12.4657 4.57328 13.1401 3.93824 13.9471 3.52506C14.4996 3.24222 15.1073 3.11768 15.836 3.05783C16.5574 2.99861 17.456 3 18.6 3H19.0129C19.5793 3 20.0443 2.9991 20.4218 3.03007C20.8067 3.06167 21.1597 3.12966 21.4916 3.29954C22.0073 3.56357 22.4304 3.98654 22.6967 4.51157C22.8693 4.85184 22.938 5.21448 22.9698 5.60563C23.0008 5.98778 23 6.45777 23 7.02583V16.9742Z" fill="#111111"/>
</svg>
