<svg width="48" height="48" viewBox="0 0 48 48" fill="none" xmlns="http://www.w3.org/2000/svg">
<circle cx="24" cy="24" r="24" fill="white"/>
<path d="M33.6258 19.0258C33.6258 18.4338 33.6252 18.0336 33.6001 17.7248C33.5757 17.4251 33.5314 17.275 33.4792 17.1719C33.3501 16.9173 33.142 16.7062 32.8817 16.5729C32.7724 16.5169 32.616 16.4717 32.3132 16.4468C32.0028 16.4213 31.6015 16.4202 31.0129 16.4202H30.6C29.4342 16.4202 28.5999 16.4209 27.9457 16.4746C27.2991 16.5276 26.8879 16.6297 26.5581 16.7984C25.9097 17.1304 25.3855 17.6584 25.0586 18.303C24.8939 18.6277 24.7933 19.0336 24.7408 19.6793C24.6876 20.3337 24.6871 21.1692 24.6871 22.3416V31.5798H31.0129C31.6015 31.5798 32.0028 31.5787 32.3132 31.5532C32.616 31.5283 32.7724 31.4831 32.8817 31.4271C33.142 31.2938 33.3501 31.0827 33.4792 30.8281C33.5314 30.725 33.5757 30.5749 33.6001 30.2752C33.6252 29.9664 33.6258 29.5662 33.6258 28.9742V19.0258ZM14.3742 28.9742C14.3742 29.5662 14.3748 29.9664 14.3999 30.2752C14.4243 30.5749 14.4686 30.725 14.5208 30.8281C14.6499 31.0827 14.858 31.2938 15.1183 31.4271C15.2276 31.4831 15.384 31.5283 15.6868 31.5532C15.9972 31.5787 16.3985 31.5798 16.9871 31.5798H23.3129V22.3416L23.3051 20.8161C23.2983 20.3789 23.2858 20.0064 23.2592 19.6793C23.2067 19.0336 23.1061 18.6277 22.9414 18.303C22.6145 17.6584 22.0903 17.1304 21.4419 16.7984C21.1121 16.6297 20.7009 16.5276 20.0543 16.4746C19.4001 16.4209 18.5658 16.4202 17.4 16.4202H16.9871C16.3985 16.4202 15.9972 16.4213 15.6868 16.4468C15.384 16.4717 15.2276 16.5169 15.1183 16.5729C14.858 16.7062 14.6499 16.9173 14.5208 17.1719C14.4686 17.275 14.4243 17.4251 14.3999 17.7248C14.3748 18.0336 14.3742 18.4338 14.3742 19.0258V28.9742ZM35 28.9742C35 29.5422 35.0008 30.0122 34.9698 30.3944C34.938 30.7855 34.8693 31.1482 34.6967 31.4884C34.4304 32.0135 34.0073 32.4364 33.4916 32.7005C33.1597 32.8703 32.8067 32.9383 32.4218 32.9699C32.0443 33.0009 31.5793 33 31.0129 33H16.9871C16.4207 33 15.9557 33.0009 15.5782 32.9699C15.1933 32.9383 14.8403 32.8703 14.5084 32.7005C13.9927 32.4364 13.5696 32.0135 13.3033 31.4884C13.1307 31.1482 13.062 30.7855 13.0302 30.3944C12.9992 30.0122 13 29.5422 13 28.9742V19.0258C13 18.4578 12.9992 17.9878 13.0302 17.6056C13.062 17.2145 13.1307 16.8518 13.3033 16.5116C13.5696 15.9865 13.9927 15.5636 14.5084 15.2995C14.8403 15.1297 15.1933 15.0617 15.5782 15.0301C15.9557 14.9991 16.4207 15 16.9871 15H17.4C18.544 15 19.4426 14.9986 20.164 15.0578C20.8927 15.1177 21.5004 15.2422 22.0529 15.5251C22.8599 15.9382 23.5343 16.5733 24 17.3558C24.4657 16.5733 25.1401 15.9382 25.9471 15.5251C26.4996 15.2422 27.1073 15.1177 27.836 15.0578C28.5574 14.9986 29.456 15 30.6 15H31.0129C31.5793 15 32.0443 14.9991 32.4218 15.0301C32.8067 15.0617 33.1597 15.1297 33.4916 15.2995C34.0073 15.5636 34.4304 15.9865 34.6967 16.5116C34.8693 16.8518 34.938 17.2145 34.9698 17.6056C35.0008 17.9878 35 18.4578 35 19.0258V28.9742Z" fill="#111111"/>
</svg>
